<svg width="61" height="24" viewBox="0 0 61 24" fill="none" xmlns="http://www.w3.org/2000/svg">
<g id="Frame 64">
<path id="Vector" d="M20.2711 0.0362765C21.4752 0.0362765 22.4097 0.290218 23.1105 0.798096C23.7934 1.30597 24.1349 2.08593 24.1529 3.11982C24.1529 3.6277 24.045 4.13558 23.8114 4.58904C23.6137 5.00623 23.2723 5.35086 22.8589 5.55039V5.62294C23.3262 5.8406 23.7215 6.18523 24.0091 6.6387C24.1888 6.91077 24.3146 7.20099 24.4044 7.50935C24.5123 7.87212 24.5662 8.27116 24.5482 8.65207C24.5662 9.2325 24.4404 9.7948 24.2068 10.3027C23.9911 10.7743 23.6497 11.1733 23.2543 11.4817C22.841 11.8082 22.3737 12.044 21.8705 12.1891C21.3494 12.3523 20.7923 12.4249 20.2532 12.4249H13.6758V0H20.2711V0.0362765ZM16.8387 4.60718H19.732C20.0914 4.64346 20.4329 4.53463 20.7024 4.29883C20.8821 4.0993 20.99 3.82723 20.972 3.55515C20.972 3.30121 20.8821 3.04727 20.7024 2.84775C20.4329 2.61195 20.0734 2.50311 19.732 2.53939H16.8387V4.60718ZM16.8387 9.9399H19.7679C20.2172 9.97618 20.6665 9.84921 21.0079 9.55899C21.2595 9.28692 21.3853 8.94229 21.3674 8.56138C21.4033 8.14419 21.2416 7.74514 20.9361 7.47307C20.5946 7.21913 20.1813 7.09216 19.7679 7.1103H16.8387V9.9399Z" fill="black"/>
<path id="Vector_2" d="M27.5496 12.4614H24.207L28.556 0.0546875H31.7908L36.2476 12.4614H32.7253L32.1322 10.3029H28.1606L27.5496 12.4614ZM30.1554 3.30148H30.0835L28.8076 7.90866H31.4134L30.1554 3.30148Z" fill="black"/>
<path id="Vector_3" d="M39.9499 5.11492H39.878V12.461H36.7151V0.0361328H40.2194L44.4067 6.96505H44.4785V0.0361328H47.6414V12.461H44.4606L39.9499 5.11492Z" fill="black"/>
<path id="Vector_4" d="M52.0439 0.0361328V4.38938L56.0874 0.0361328H60.2566L55.2966 4.77029L60.5442 12.461H56.5726L52.9424 6.94691L52.0259 7.83569V12.461H48.863V0.0361328H52.0439Z" fill="black"/>
<path id="Vector_5" d="M6.64905 14.3662V16.4521H4.49254V23.762H2.21023V16.4521H0.0537109V14.3662H6.64905Z" fill="black"/>
<path id="Vector_6" d="M12.1304 14.3662C12.4539 14.3662 12.7953 14.4388 13.0829 14.5657C13.3704 14.6927 13.64 14.8922 13.8376 15.1462C14.0533 15.4001 14.215 15.6903 14.3229 16.0168C14.4487 16.3614 14.5026 16.7242 14.5026 17.087C14.5205 17.6311 14.3768 18.1572 14.1072 18.6288C13.8376 19.0641 13.4602 19.3906 13.011 19.6082L14.7002 23.762H12.2742L10.8724 19.9347H9.03939V23.762H6.75708V14.3662H12.1304ZM11.4475 17.9758C11.6632 17.9939 11.8788 17.9032 12.0046 17.7218C12.1304 17.5586 12.1843 17.3591 12.1843 17.1595C12.1843 17.0688 12.1663 16.96 12.1484 16.8693C12.1304 16.7786 12.0765 16.6879 12.0226 16.5972C11.9687 16.5247 11.8788 16.4521 11.7889 16.3977C11.6811 16.3433 11.5733 16.307 11.4475 16.3252H9.05736V17.9758H11.4475Z" fill="black"/>
<path id="Vector_7" d="M16.5158 23.762H14.1077L17.2346 14.3662H19.5708L22.7697 23.762H20.2358L19.8045 22.1295H16.9471L16.5158 23.762ZM18.4027 16.833H18.3668L17.4503 20.3156H19.3192L18.4027 16.833Z" fill="black"/>
<path id="Vector_8" d="M25.1055 18.2116H25.0516V23.762H22.7693V14.3662H25.2852L28.3043 19.6082H28.3583V14.3662H30.6406V23.762H28.3403L25.1055 18.2116Z" fill="black"/>
<path id="Vector_9" d="M34.5402 23.9968C34.037 24.015 33.5338 23.9424 33.0486 23.7973C32.6532 23.6703 32.2938 23.4889 31.9703 23.2531C31.6828 23.0173 31.4312 22.7453 31.2515 22.4006C31.0718 22.056 30.928 21.6932 30.8381 21.3305L33.0126 20.4417C33.0306 20.9133 33.2103 21.3486 33.5338 21.6751C33.8752 21.9653 34.3065 22.1104 34.7378 22.0923C34.8636 22.0923 34.9894 22.0741 35.1152 22.056C35.241 22.0379 35.3488 22.0016 35.4567 21.929C35.5645 21.8746 35.6364 21.7839 35.7083 21.6751C35.7802 21.5663 35.8161 21.4211 35.8161 21.2942C35.8161 21.1672 35.7981 21.0402 35.7622 20.9133C35.7083 20.7863 35.6364 20.6775 35.5465 20.6049C35.4207 20.4961 35.277 20.4054 35.1152 20.3328C34.8816 20.224 34.648 20.1515 34.4144 20.0789C33.9112 19.9338 33.426 19.7524 32.9587 19.5529C32.5813 19.3896 32.2399 19.172 31.9164 18.8999C31.6468 18.6641 31.4312 18.3739 31.2874 18.0474C31.1436 17.6846 31.0718 17.3037 31.0718 16.9228C31.0718 16.5056 31.1616 16.0884 31.3413 15.7257C31.521 15.381 31.7726 15.0727 32.0961 14.8369C32.4376 14.5829 32.8149 14.4015 33.2283 14.2927C33.6955 14.1657 34.1807 14.1113 34.666 14.1113C35.0973 14.1113 35.5465 14.1476 35.9599 14.2564C36.3013 14.3471 36.6248 14.4922 36.9123 14.6918C37.1819 14.8731 37.4155 15.1089 37.5952 15.381C37.7929 15.6894 37.9367 15.9977 38.0625 16.3424L36.1036 17.213C36.0317 16.8502 35.852 16.5237 35.6004 16.2698C35.0613 15.907 34.3784 15.8889 33.8213 16.2154C33.6596 16.3424 33.5697 16.5237 33.5518 16.7233C33.5518 16.8502 33.5697 16.9591 33.6236 17.0679C33.6775 17.1767 33.7674 17.2856 33.8752 17.3581C34.019 17.467 34.1807 17.5576 34.3604 17.6121C34.63 17.7209 34.8816 17.7934 35.1512 17.866C35.5825 17.993 36.0138 18.1199 36.3912 18.2469C36.7506 18.3739 37.092 18.5553 37.3975 18.7911C37.6851 19.0269 37.9187 19.3171 38.0804 19.6436C38.2601 20.0608 38.35 20.5324 38.332 20.9858C38.35 21.4393 38.2422 21.8746 38.0445 22.2918C37.8468 22.6546 37.5772 22.9811 37.2358 23.2169C36.8764 23.4708 36.463 23.6703 36.0317 23.7792C35.5286 23.9424 35.0254 24.015 34.5402 23.9968Z" fill="black"/>
<path id="Vector_10" d="M40.7762 17.8488H44.3165V19.9347H40.7762V23.762H38.4939V14.3662H45.3947V16.4521H40.7762V17.8488Z" fill="black"/>
<path id="Vector_11" d="M45.5742 14.3662H52.4751V16.4521H47.8565V17.7218H51.9V19.8078H47.8565V21.6942H52.6009V23.7801H45.5742V14.3662Z" fill="black"/>
<path id="Vector_12" d="M58.136 14.3662C58.4595 14.3662 58.8009 14.4388 59.0885 14.5657C59.376 14.6927 59.6456 14.8922 59.8433 15.1462C60.0589 15.4001 60.2206 15.6903 60.3285 16.0168C60.4543 16.3614 60.5082 16.7242 60.5082 17.087C60.5262 17.6311 60.3824 18.1572 60.1128 18.6288C59.8433 19.0641 59.4659 19.3906 59.0166 19.6082L60.7059 23.762H58.2798L56.878 19.9347H55.045V23.762H52.7627V14.3662H58.136ZM57.4531 17.9758C57.6688 17.9939 57.8844 17.9032 58.0102 17.7218C58.136 17.5586 58.1899 17.3591 58.1899 17.1595C58.1899 17.0688 58.172 16.96 58.154 16.8693C58.136 16.7786 58.0821 16.6879 58.0282 16.5972C57.9743 16.5247 57.8844 16.4521 57.7946 16.3977C57.6867 16.3433 57.5789 16.307 57.4531 16.3252H55.063V17.9758H57.4531Z" fill="black"/>
<path id="Vector_13" d="M12.4539 0.0361328H0V2.55739H12.4539V0.0361328Z" fill="black"/>
<path id="Vector_14" d="M12.4539 4.77051H0V7.29176H12.4539V4.77051Z" fill="black"/>
<path id="Vector_15" d="M12.4539 9.95801H0V12.4793H12.4539V9.95801Z" fill="black"/>
</g>
</svg>
