<svg width="23" height="23" viewBox="0 0 23 23" fill="none" xmlns="http://www.w3.org/2000/svg">
<g clip-path="url(#clip0_856_335)">
<path d="M18.8294 18.8299C23.137 14.5223 23.137 7.53828 18.8294 3.2307C14.5218 -1.07689 7.53786 -1.07689 3.23027 3.2307C-1.07732 7.53828 -1.07732 14.5223 3.23027 18.8299C7.53786 23.1374 14.5218 23.1374 18.8294 18.8299Z" fill="#1877F2"/>
<path fill-rule="evenodd" clip-rule="evenodd" d="M13.371 6.03818C13.8378 6.0226 14.3046 6.03464 14.7727 6.03393H14.9654V3.60519C14.7161 3.5804 14.4547 3.54428 14.1941 3.53153C13.7153 3.51028 13.2357 3.4862 12.7562 3.49753C12.0246 3.51311 11.3318 3.69089 10.727 4.12508C10.0335 4.62443 9.65248 5.32493 9.50728 6.15293C9.44707 6.49432 9.43149 6.84776 9.42299 7.19553C9.40954 7.74092 9.42016 8.2856 9.42087 8.83099V9.03498H7.09695V11.7477H9.40741V18.5672H12.2307V11.7591H14.5333C14.6516 10.8574 14.7664 9.96355 14.8875 9.03356C14.7026 9.03356 14.5362 9.03356 14.3697 9.03356C13.7153 9.03639 12.2115 9.03356 12.2115 9.03356C12.2115 9.03356 12.2179 7.68922 12.2342 7.10558C12.2569 6.30663 12.7307 6.06226 13.371 6.0396V6.03818Z" fill="white"/>
</g>
<defs>
<clipPath id="clip0_856_335">
<rect width="22.0612" height="22.0612" fill="white"/>
</clipPath>
</defs>
</svg>
