<svg width="62" height="30" viewBox="0 0 62 30" fill="none" xmlns="http://www.w3.org/2000/svg">
<g id="Google_Pay_Logo 1" clip-path="url(#clip0_398_115364)">
<path id="Vector" d="M29.0044 15.2085V22.3884H26.7024V4.63184H32.6875C34.1454 4.63184 35.5266 5.17225 36.6009 6.17588C37.6751 7.10231 38.2122 8.49195 38.2122 9.95879C38.2122 11.4256 37.6751 12.7381 36.6009 13.7417C35.5266 14.7453 34.2222 15.2857 32.6875 15.2857L29.0044 15.2085ZM29.0044 6.7935V12.9697H32.841C33.685 12.9697 34.5291 12.6609 35.0662 12.0433C36.2939 10.8852 36.2939 8.95516 35.143 7.79713L35.0662 7.71993C34.4524 7.10231 33.685 6.7163 32.841 6.7935H29.0044Z" fill="#5F6368"/>
<path id="Vector_2" d="M43.5067 9.88184C45.1948 9.88184 46.4993 10.345 47.4968 11.2715C48.4943 12.1979 48.9547 13.4331 48.9547 14.9772V22.3886H46.8062V20.6902H46.7294C45.8087 22.0798 44.5042 22.7746 42.9696 22.7746C41.6651 22.7746 40.5141 22.3886 39.5933 21.6166C38.7493 20.8446 38.2122 19.7637 38.2122 18.6057C38.2122 17.3705 38.6726 16.3668 39.5933 15.5948C40.5141 14.8228 41.8186 14.514 43.3532 14.514C44.7344 14.514 45.8087 14.7456 46.6527 15.286V14.7456C46.6527 13.9736 46.3458 13.2015 45.7319 12.7383C45.1181 12.1979 44.3507 11.8891 43.5067 11.8891C42.2022 11.8891 41.2047 12.4295 40.5141 13.5103L38.5191 12.2751C39.7468 10.6539 41.3582 9.88184 43.5067 9.88184ZM40.5909 18.6829C40.5909 19.3005 40.8978 19.8409 41.3582 20.1497C41.8953 20.5357 42.5092 20.7674 43.123 20.7674C44.0438 20.7674 44.9646 20.3813 45.6552 19.6865C46.4225 18.9917 46.8062 18.1425 46.8062 17.2161C46.1156 16.6756 45.1181 16.3668 43.8136 16.3668C42.8928 16.3668 42.1255 16.5984 41.5116 17.0616C40.8978 17.4477 40.5909 17.9881 40.5909 18.6829Z" fill="#5F6368"/>
<path id="Vector_3" d="M61.3856 10.2676L53.7891 27.7925H51.4871L54.3262 21.6935L49.3386 10.3448H51.7941L55.4005 19.0686H55.4772L59.0069 10.3448H61.3856V10.2676Z" fill="#5F6368"/>
<path id="Vector_4" d="M19.8734 13.6645C19.8734 12.9697 19.7967 12.2749 19.72 11.5801H10.1284V15.5174H15.5764C15.3462 16.7526 14.6556 17.9107 13.5814 18.6055V21.1532H16.8809C18.7992 19.3775 19.8734 16.7526 19.8734 13.6645Z" fill="#4285F4"/>
<path id="Vector_5" d="M10.1284 23.6239C12.8908 23.6239 15.1927 22.6975 16.8808 21.1535L13.5813 18.6058C12.6606 19.2234 11.5096 19.6094 10.1284 19.6094C7.51949 19.6094 5.21752 17.8338 4.4502 15.3633H1.07397V17.9882C2.83882 21.4623 6.29177 23.6239 10.1284 23.6239Z" fill="#34A853"/>
<path id="Vector_6" d="M4.45037 15.363C3.98998 14.1277 3.98998 12.7381 4.45037 11.4257V8.80078H1.07415C-0.383766 11.6573 -0.383766 15.0542 1.07415 17.9879L4.45037 15.363Z" fill="#FBBC04"/>
<path id="Vector_7" d="M10.1281 7.25695C11.586 7.25695 12.9672 7.79737 14.0414 8.801L16.9573 5.86731C15.1157 4.16886 12.6602 3.16523 10.2048 3.24243C6.36819 3.24243 2.8385 5.4041 1.15039 8.8782L4.52661 11.5031C5.21721 9.0326 7.51918 7.25695 10.1281 7.25695Z" fill="#EA4335"/>
</g>
<defs>
<clipPath id="clip0_398_115364">
<rect width="61.3859" height="29.4141" fill="white"/>
</clipPath>
</defs>
</svg>
