<svg width="23" height="23" viewBox="0 0 23 23" fill="none" xmlns="http://www.w3.org/2000/svg">
<g clip-path="url(#clip0_856_331)">
<path d="M18.8296 18.8299C23.1372 14.5223 23.1372 7.53828 18.8296 3.2307C14.522 -1.07689 7.53801 -1.07689 3.23042 3.2307C-1.07716 7.53828 -1.07716 14.5223 3.23042 18.8299C7.53801 23.1374 14.522 23.1374 18.8296 18.8299Z" fill="url(#paint0_linear_856_331)"/>
<path d="M17.7136 7.6467C17.6222 6.75283 17.2794 5.96167 16.615 5.32774C15.9159 4.66053 15.061 4.36588 14.124 4.3163C12.5268 4.22918 8.73526 4.17393 7.40367 4.39138C5.88225 4.63928 4.88497 5.52677 4.46425 7.02977C4.14056 8.18571 4.20501 13.5142 4.39412 14.6567C4.65194 16.2192 5.57556 17.2214 7.12389 17.6202C8.19554 17.8971 13.4631 17.8617 14.6453 17.6698C16.2092 17.4169 17.215 16.499 17.6215 14.9528C17.9318 13.7664 17.8234 8.71693 17.715 7.64599L17.7136 7.6467ZM16.4628 14.4357C16.2807 15.6228 15.4931 16.358 14.3003 16.4883C13.2046 16.6087 8.30958 16.6746 7.29317 16.3906C6.32069 16.1186 5.76467 15.45 5.60318 14.4711C5.44877 13.5362 5.41053 8.86496 5.60106 7.61412C5.78026 6.43764 6.56788 5.70314 7.75427 5.57069C8.95767 5.43611 13.2896 5.42124 14.4427 5.5976C15.627 5.77963 16.3608 6.56867 16.4911 7.76357C16.6122 8.87842 16.6469 13.2373 16.4635 14.4357H16.4628ZM11.0308 7.54683C9.10641 7.54612 7.54603 9.10437 7.54533 11.0288C7.54462 12.9532 9.10357 14.5136 11.0273 14.5143C12.9517 14.515 14.5121 12.9561 14.5128 11.0323C14.5135 9.10791 12.9546 7.54754 11.0308 7.54683ZM11.0068 13.2812C9.76229 13.2698 8.76288 12.252 8.77422 11.0083C8.78555 9.76379 9.80337 8.76439 11.0471 8.77572C12.2916 8.78705 13.291 9.80487 13.2797 11.0486C13.2683 12.2931 12.2505 13.2925 11.0068 13.2812ZM15.4662 7.41509C15.4648 7.86556 15.0993 8.22962 14.6488 8.22892C14.1983 8.2275 13.8343 7.86202 13.835 7.41154C13.8357 6.96107 14.2019 6.59701 14.6524 6.59771C15.1028 6.59913 15.4669 6.96461 15.4662 7.41509Z" fill="white"/>
</g>
<defs>
<linearGradient id="paint0_linear_856_331" x1="2.96339" y1="18.5494" x2="19.1032" y2="3.50928" gradientUnits="userSpaceOnUse">
<stop offset="0.09" stop-color="#F3C55A"/>
<stop offset="0.15" stop-color="#F4B55C"/>
<stop offset="0.25" stop-color="#F68E64"/>
<stop offset="0.38" stop-color="#FA4E70"/>
<stop offset="0.39" stop-color="#FB4C71"/>
<stop offset="0.7" stop-color="#AD44EB"/>
<stop offset="0.75" stop-color="#A745EC"/>
<stop offset="0.81" stop-color="#9848EF"/>
<stop offset="0.87" stop-color="#804DF4"/>
<stop offset="0.92" stop-color="#6853FA"/>
</linearGradient>
<clipPath id="clip0_856_331">
<rect width="22.0612" height="22.0612" fill="white"/>
</clipPath>
</defs>
</svg>
