<svg width="23" height="23" viewBox="0 0 23 23" fill="none" xmlns="http://www.w3.org/2000/svg">
<g clip-path="url(#clip0_856_339)">
<path d="M18.8295 18.8299C23.1371 14.5223 23.1371 7.53828 18.8295 3.2307C14.5219 -1.07689 7.53797 -1.07689 3.23038 3.2307C-1.07721 7.53828 -1.07721 14.5223 3.23038 18.8299C7.53797 23.1374 14.5219 23.1374 18.8295 18.8299Z" fill="#1D9BF0"/>
<path fill-rule="evenodd" clip-rule="evenodd" d="M16.9969 5.98444L15.1327 17.4191C15.0435 17.9645 14.326 18.1409 13.8252 17.745C12.3031 16.5401 10.8468 15.387 9.45148 14.2828C8.82818 13.7898 8.73185 12.9555 9.22765 12.4264C10.3914 11.1869 11.5615 9.94026 12.7373 8.688C12.9412 8.47055 12.6062 8.17094 12.3491 8.33881C10.5139 9.53724 8.71343 10.7123 6.94624 11.8661C6.5673 12.1133 6.07362 12.148 5.65289 11.9596C4.66624 11.5183 3.70579 11.0884 2.77084 10.6705C2.2637 10.4439 2.31399 9.73344 2.84663 9.55991L15.904 5.28677C16.465 5.10332 17.0784 5.49005 16.9984 5.98444H16.9969Z" fill="white"/>
</g>
<defs>
<clipPath id="clip0_856_339">
<rect width="22.0605" height="22.0612" fill="white"/>
</clipPath>
</defs>
</svg>
