<svg width="22" height="22" viewBox="0 0 22 22" fill="none" xmlns="http://www.w3.org/2000/svg">
<g clip-path="url(#clip0_1291_3158)">
<circle cx="11" cy="11" r="11" fill="black"/>
<path d="M14.1951 10.413C15.9653 11.1642 16.8357 12.9619 16.2582 14.8229C15.8649 16.0931 14.7433 17.1186 13.5422 17.5828C12.0273 18.1694 9.99346 18.1314 8.49946 17.5068C5.4696 16.2408 4.76236 12.7256 5.06367 9.80109C5.27292 7.75438 6.11826 5.75831 7.98472 4.73285C9.39084 3.95637 11.1903 3.84665 12.7304 4.17159C14.329 4.50919 15.6263 5.46291 16.4131 6.90616C16.6558 7.34926 16.8525 7.83878 16.999 8.38316C17.0031 8.40426 16.9948 8.42536 16.9738 8.42958L15.8607 8.72498C15.8397 8.7292 15.8188 8.71654 15.8146 8.69966C15.6472 8.05822 15.3836 7.48852 15.0195 6.99056C13.8812 5.42915 11.793 5.01137 9.99346 5.33631C7.87173 5.72033 6.69996 7.22266 6.3568 9.28624C6.07641 10.9616 6.1643 12.9028 6.93013 14.4473C7.5746 15.7471 8.74218 16.4772 10.1483 16.6797C10.9058 16.7852 11.6465 16.7726 12.3705 16.6375C13.4083 16.4434 14.5215 15.7513 14.9735 14.7596C15.2664 14.1182 15.2957 13.3037 14.9735 12.6665C14.7893 12.3036 14.5131 12.0124 14.149 11.7929C14.1323 11.7803 14.1072 11.7887 14.0988 11.8056C14.0946 11.8098 14.0946 11.814 14.0946 11.8183C14.0528 12.1305 13.9817 12.4386 13.877 12.7382C13.7264 13.1644 13.5088 13.5316 13.22 13.8312C12.2491 14.8398 10.5584 14.9284 9.41595 14.2026C8.50364 13.6202 8.16048 12.4302 8.59571 11.4511C9.04768 10.4383 10.1525 9.99943 11.2029 9.94879C11.7971 9.91925 12.3454 9.94457 12.8517 10.0163C12.8727 10.0205 12.8894 10.0036 12.8936 9.98255C12.8936 9.97833 12.8936 9.97411 12.8936 9.96989C12.8476 9.73779 12.7931 9.54789 12.7262 9.40019C12.3747 8.61948 11.5837 8.4127 10.7928 8.51398C10.2864 8.57728 9.88884 8.81782 9.59171 9.23138C9.57916 9.24826 9.55823 9.25248 9.54149 9.23982L8.59571 8.58994C8.57897 8.57728 8.57479 8.55618 8.58734 8.53508C9.09371 7.81768 9.78003 7.3999 10.6505 7.28596C11.3703 7.1889 12.178 7.30284 12.8057 7.68686C13.7473 8.26922 14.0821 9.31579 14.1658 10.375C14.1742 10.3961 14.1825 10.4088 14.1951 10.413ZM9.6796 12.0672C9.49128 12.7045 9.9265 13.2066 10.5166 13.3586C11.3452 13.5696 12.2659 13.3839 12.6592 12.5272C12.8141 12.1896 12.9061 11.7929 12.9354 11.3414C12.9354 11.3203 12.9229 11.3034 12.9061 11.3034C12.291 11.181 11.659 11.1557 11.0146 11.219C10.4915 11.2739 9.84281 11.5144 9.6796 12.0672Z" fill="white"/>
</g>
<defs>
<clipPath id="clip0_1291_3158">
<rect width="22" height="22" fill="white"/>
</clipPath>
</defs>
</svg>
