<svg width="69" height="25" viewBox="0 0 69 25" fill="none" xmlns="http://www.w3.org/2000/svg">
<rect width="69" height="25" fill="#1E1E1E"/>
<g clip-path="url(#clip0_189_2)">
<rect width="377" height="805" transform="translate(-50 -447)" fill="white"/>
<g clip-path="url(#clip1_189_2)">
<mask id="mask0_189_2" style="mask-type:luminance" maskUnits="userSpaceOnUse" x="-6" y="-8" width="80" height="41">
<path d="M-5.71069 -7.91172H73.941V32.1699H-5.71069V-7.91172Z" fill="white"/>
</mask>
<g mask="url(#mask0_189_2)">
<path d="M0.553931 20.8383H1.06466L0.590069 22.8333C0.519636 23.1293 0.532912 23.3522 0.630264 23.5008C0.727247 23.6496 0.907754 23.724 1.1716 23.724C1.43379 23.724 1.64877 23.6496 1.81674 23.5008C1.9849 23.3522 2.10419 23.1293 2.17462 22.8333L2.64903 20.8383H3.1664L2.68019 22.8827C2.57454 23.3269 2.38629 23.6594 2.11673 23.8799C1.84698 24.1007 1.49334 24.2109 1.05581 24.2109C0.61791 24.2109 0.317557 24.1009 0.154013 23.881C-0.00971549 23.6613 -0.0382942 23.3284 0.0677236 22.8827L0.553931 20.8383Z" fill="#696A6A"/>
<path d="M3.09741 24.1235L3.90979 20.7082L5.45341 22.7166C5.49471 22.7732 5.53638 22.8338 5.57749 22.8982C5.61861 22.9626 5.66065 23.035 5.70379 23.1159L6.24568 20.8383H6.72378L5.91196 24.251L4.33589 22.2068C4.29366 22.1517 4.25439 22.0934 4.2177 22.032C4.18064 21.9706 4.14727 21.9062 4.11666 21.839L3.57329 24.1235H3.09741Z" fill="#696A6A"/>
<path d="M6.68164 24.123L7.46304 20.8378H7.98004L7.19882 24.123H6.68164Z" fill="#696A6A"/>
<path d="M7.94238 24.123L8.72378 20.8378H10.4993L10.3915 21.291H9.1331L8.93821 22.1101H10.1966L10.0852 22.579H8.82666L8.45957 24.123H7.94238Z" fill="#696A6A"/>
<path d="M10.2878 24.123L11.0692 20.8378H11.5862L10.805 24.123H10.2878Z" fill="#696A6A"/>
<path d="M11.5483 24.123L12.3297 20.8378H14.1053L13.9974 21.291H12.7391L12.5431 22.1145H13.8014L13.6901 22.5836H12.4317L12.1791 23.645H13.4375L13.3239 24.123H11.5483Z" fill="#696A6A"/>
<path d="M14.5491 23.6404H14.9839C15.2228 23.6404 15.4061 23.6239 15.5335 23.591C15.6609 23.5582 15.7778 23.5027 15.8849 23.425C16.0304 23.319 16.1519 23.1869 16.2496 23.029C16.3472 22.8712 16.4211 22.6873 16.4709 22.4778C16.5205 22.2683 16.5341 22.085 16.5116 21.9275C16.489 21.7694 16.4303 21.6374 16.3354 21.5311C16.264 21.4535 16.1698 21.3979 16.0522 21.3648C15.9343 21.3322 15.7426 21.3157 15.476 21.3157H15.289H15.1021L14.5491 23.6404ZM13.9172 24.123L14.6986 20.8377H15.3961C15.8497 20.8377 16.1632 20.861 16.3368 20.9082C16.5102 20.9555 16.6534 21.0345 16.7661 21.1451C16.9156 21.2902 17.0107 21.4765 17.0517 21.7037C17.0924 21.9312 17.078 22.1908 17.0087 22.4825C16.9394 22.7742 16.8304 23.0327 16.6818 23.2578C16.5336 23.483 16.3497 23.6688 16.1311 23.8154C15.9657 23.9262 15.7883 24.005 15.5999 24.0523C15.4109 24.0993 15.1292 24.123 14.7538 24.123H14.6146H13.9172Z" fill="#696A6A"/>
<path d="M19.5273 22.2112H19.66C19.9467 22.2112 20.1457 22.1787 20.2567 22.1145C20.3679 22.0503 20.4425 21.9366 20.4813 21.7734C20.5229 21.5985 20.5014 21.4749 20.4162 21.4032C20.331 21.3314 20.1518 21.2952 19.878 21.2952H19.7452L19.5273 22.2112ZM19.3907 22.6484L19.04 24.123H18.5554L19.337 20.8378H20.1193C20.3511 20.8378 20.5187 20.8508 20.6219 20.877C20.7248 20.903 20.8098 20.9462 20.8769 21.0061C20.9586 21.0824 21.0123 21.1852 21.0381 21.3145C21.0637 21.4441 21.0582 21.5866 21.0213 21.7419C20.9841 21.8976 20.9217 22.0412 20.834 22.173C20.7462 22.3045 20.6433 22.4079 20.5257 22.4825C20.4302 22.5424 20.3249 22.5851 20.2095 22.6103C20.0939 22.6359 19.9204 22.6484 19.6886 22.6484H19.5867H19.3907Z" fill="#696A6A"/>
<path d="M21.6594 22.8328H22.5461L22.398 22.0832C22.391 22.0355 22.3844 21.9805 22.3787 21.9184C22.3733 21.8562 22.3696 21.787 22.3672 21.7107C22.3329 21.7825 22.2985 21.8495 22.264 21.9117C22.2297 21.9737 22.1963 22.0308 22.1635 22.0832L21.6594 22.8328ZM22.7826 24.123L22.6228 23.2771H21.3622L20.7915 24.123H20.2485L22.6014 20.7078L23.328 24.123H22.7826Z" fill="#696A6A"/>
<path d="M24.0698 24.123L24.4271 22.6194L23.7795 20.8378H24.3229L24.7249 21.9531C24.7341 21.9816 24.7451 22.0189 24.7579 22.0653C24.7708 22.1117 24.7833 22.1616 24.7951 22.2156C24.8276 22.1633 24.8609 22.1136 24.8943 22.0674C24.9277 22.021 24.9614 21.9785 24.9955 21.9395L25.9419 20.8378H26.4593L24.94 22.6194L24.5825 24.123H24.0698Z" fill="#696A6A"/>
<path d="M29.0046 22.5008C29.0048 22.4754 29.0121 22.4052 29.0265 22.29C29.0376 22.1943 29.0462 22.1148 29.0525 22.0519C29.0217 22.1269 28.9854 22.2019 28.9437 22.2765C28.9019 22.3512 28.8539 22.4275 28.7992 22.5054L27.5504 24.2559L27.1429 22.4696C27.1256 22.3961 27.1123 22.3251 27.1034 22.2564C27.0946 22.1876 27.0885 22.1195 27.0856 22.0519C27.0679 22.121 27.0454 22.193 27.0179 22.2687C26.9904 22.3442 26.9576 22.4232 26.9191 22.5054L26.193 24.1234H25.7173L27.2836 20.6988L27.7294 22.7725C27.7359 22.8053 27.7453 22.8601 27.7567 22.9363C27.7681 23.0126 27.7816 23.1069 27.7973 23.2189C27.85 23.1247 27.926 23.0052 28.0259 22.8601C28.0524 22.8211 28.0727 22.7912 28.0864 22.7702L29.4963 20.6988L29.4511 24.1234H28.9707L29.0046 22.5008Z" fill="#696A6A"/>
<path d="M29.864 24.123L30.6456 20.8378H32.4212L32.3133 21.291H31.0547L30.8589 22.1145H32.1173L32.0059 22.5836H30.7474L30.495 23.645H31.7533L31.6394 24.123H29.864Z" fill="#696A6A"/>
<path d="M32.2329 24.1235L33.0453 20.7082L34.5889 22.7166C34.6302 22.7732 34.6719 22.8338 34.713 22.8982C34.7541 22.9626 34.7961 23.035 34.8393 23.1159L35.3812 20.8383H35.8595L35.0475 24.251L33.4714 22.2068C33.4292 22.1517 33.3899 22.0934 33.3532 22.032C33.3161 21.9706 33.2828 21.9062 33.2522 21.839L32.7088 24.1235H32.2329Z" fill="#696A6A"/>
<path d="M37.5095 21.291L36.8359 24.123H36.3188L36.9921 21.291H36.1467L36.2546 20.8378H38.4583L38.3506 21.291H37.5095Z" fill="#696A6A"/>
<path d="M38.0465 23.4659L38.5063 23.2686C38.511 23.4151 38.5559 23.527 38.6419 23.604C38.7278 23.6812 38.8519 23.7196 39.0145 23.7196C39.1679 23.7196 39.3006 23.6754 39.412 23.5871C39.5236 23.4989 39.5971 23.3807 39.6323 23.2326C39.6783 23.0395 39.5638 22.8675 39.29 22.7166C39.2516 22.6941 39.2221 22.6776 39.2018 22.6671C38.893 22.4906 38.6972 22.3308 38.6146 22.1879C38.5322 22.045 38.5152 21.8704 38.5642 21.6641C38.6278 21.3963 38.7676 21.1794 38.9831 21.0133C39.1987 20.8472 39.4491 20.7641 39.7347 20.7641C39.9694 20.7641 40.1547 20.8109 40.2902 20.9044C40.4259 20.9981 40.5033 21.1323 40.5225 21.3072L40.0673 21.5227C40.0278 21.4195 39.9758 21.344 39.9113 21.2959C39.8466 21.2481 39.7647 21.2241 39.6665 21.2241C39.5274 21.2241 39.408 21.2618 39.3082 21.3362C39.209 21.4112 39.1439 21.5114 39.1139 21.6372C39.067 21.8346 39.2029 22.0185 39.5217 22.189C39.5462 22.2024 39.5654 22.2132 39.5792 22.2206C39.8582 22.37 40.0396 22.5164 40.1228 22.6593C40.2061 22.8023 40.2225 22.9807 40.1715 23.1944C40.0975 23.5058 39.9439 23.753 39.7105 23.9361C39.4771 24.1193 39.1987 24.2109 38.8758 24.2109C38.6046 24.2109 38.3979 24.1467 38.2556 24.018C38.1129 23.8894 38.0432 23.7055 38.0465 23.4659Z" fill="#696A6A"/>
<path d="M41.8677 24.123L42.6491 20.8378H43.1663L42.3849 24.123H41.8677Z" fill="#696A6A"/>
<path d="M43.1282 24.1235L43.9405 20.7082L45.4842 22.7166C45.5255 22.7732 45.5671 22.8338 45.6083 22.8982C45.6494 22.9626 45.6914 23.035 45.7346 23.1159L46.2764 20.8383H46.7545L45.9427 24.251L44.3666 22.2068C44.3244 22.1517 44.285 22.0934 44.2483 22.032C44.2114 21.9706 44.1778 21.9062 44.1472 21.839L43.6041 24.1235H43.1282Z" fill="#696A6A"/>
<path d="M48.4047 21.291L47.731 24.123H47.214L47.8874 21.291H47.042L47.1499 20.8378H49.3535L49.2459 21.291H48.4047Z" fill="#696A6A"/>
<path d="M48.9678 24.123L49.7492 20.8378H51.5247L51.4171 21.291H50.1587L49.9627 22.1145H51.2211L51.1095 22.5836H49.8511L49.5987 23.645H50.8571L50.7433 24.123H48.9678Z" fill="#696A6A"/>
<path d="M52.3025 22.2379H52.3962C52.6698 22.2379 52.8595 22.2053 52.965 22.1394C53.0704 22.0735 53.1435 21.957 53.1829 21.7892C53.2261 21.6083 53.2084 21.4806 53.1293 21.4068C53.0509 21.3324 52.8811 21.2954 52.6204 21.2954H52.5267L52.3025 22.2379ZM52.1712 22.653L51.8215 24.123H51.3369L52.1185 20.8378H52.84C53.0515 20.8378 53.2122 20.8519 53.3219 20.8805C53.4318 20.9089 53.5203 20.9559 53.5873 21.0219C53.6669 21.101 53.7185 21.2038 53.7425 21.3294C53.7659 21.4548 53.7598 21.5925 53.7244 21.7419C53.6619 22.0052 53.5513 22.2114 53.3927 22.3604C53.2342 22.509 53.031 22.5986 52.7834 22.6283L53.5235 24.123H52.9386L52.2299 22.653H52.1712Z" fill="#696A6A"/>
<path d="M53.8298 24.123L54.6112 20.8378H56.3868L56.2791 21.291H55.0206L54.8257 22.1101H56.0842L55.9727 22.579H54.7143L54.347 24.123H53.8298Z" fill="#696A6A"/>
<path d="M56.9861 22.8328H57.8729L57.7249 22.0832C57.7177 22.0355 57.7112 21.9805 57.7055 21.9184C57.7002 21.8562 57.6965 21.787 57.6941 21.7107C57.6596 21.7825 57.6251 21.8495 57.5908 21.9117C57.5565 21.9737 57.523 22.0308 57.4902 22.0832L56.9861 22.8328ZM58.1095 24.123L57.9496 23.2771H56.689L56.1184 24.123H55.5752L57.9281 20.7078L58.6549 24.123H58.1095Z" fill="#696A6A"/>
<path d="M62.0222 21.6372C61.9066 21.5086 61.775 21.4121 61.6271 21.3477C61.4796 21.2837 61.3159 21.2512 61.1361 21.2512C60.7885 21.2512 60.478 21.3664 60.2053 21.5967C59.9323 21.8272 59.7523 22.1256 59.6651 22.4923C59.5809 22.8469 59.6176 23.1391 59.775 23.3694C59.9325 23.5999 60.1729 23.7153 60.4957 23.7153C60.6844 23.7153 60.8717 23.6808 61.0583 23.6119C61.2449 23.5431 61.4331 23.4392 61.6225 23.2998L61.4789 23.9036C61.3153 24.0068 61.1455 24.084 60.9698 24.1347C60.7939 24.1855 60.6104 24.2109 60.4192 24.2109C60.1758 24.2109 59.9605 24.1699 59.7737 24.0875C59.5868 24.0053 59.4339 23.8843 59.3157 23.724C59.1981 23.567 59.1227 23.382 59.0904 23.1686C59.0576 22.9556 59.0699 22.7285 59.1271 22.4874C59.1844 22.2468 59.2801 22.0205 59.4138 21.8088C59.5473 21.5971 59.7123 21.4112 59.9081 21.2512C60.1047 21.0896 60.3149 20.9675 60.5387 20.8842C60.7627 20.8014 60.9938 20.7596 61.2314 20.7596C61.4184 20.7596 61.5899 20.7879 61.746 20.8441C61.9022 20.8999 62.0464 20.9847 62.1789 21.0989L62.0222 21.6372Z" fill="#696A6A"/>
<path d="M62.072 24.123L62.8534 20.8378H64.629L64.5211 21.291H63.2629L63.0669 22.1145H64.3253L64.2138 22.5836H62.9554L62.703 23.645H63.9614L63.8476 24.123H62.072Z" fill="#696A6A"/>
<path d="M52.6386 17.9756H49.0833L54.0279 0.00286238H57.5835L52.6386 17.9756Z" fill="#66686C"/>
<path d="M50.7924 0.571151C50.5458 0.229158 50.1657 0.0565836 49.6492 0.0565836H30.0984L29.1301 3.57672H32.6875V3.57468H46.9158L45.8807 7.33641H31.652L31.6533 7.32862H28.0973L25.146 18.0518H28.7038L30.6844 10.8545H46.6785C47.178 10.8545 47.6481 10.683 48.0903 10.3401C48.5315 9.99683 48.8219 9.57356 48.9611 9.06809L50.9415 1.86935C51.0861 1.34699 51.0361 0.913515 50.7924 0.571151Z" fill="#66686C"/>
<path d="M23.0744 16.8537C22.878 17.5653 22.2341 18.0576 21.5001 18.0576H3.15609C2.65624 18.0576 2.28471 17.8862 2.04041 17.5436C1.79629 17.2007 1.74393 16.7765 1.8835 16.2712L6.35949 0.0553926H9.91818L5.9203 14.5386H20.1555L24.1533 0.0553926H27.7113L23.0744 16.8537Z" fill="#66686C"/>
<path d="M63.724 0.0358499L68.2254 9.0455L58.7627 18.0527L63.724 0.0358499Z" fill="#27803B"/>
<path d="M60.5681 0.0358499L65.0662 9.0455L55.5996 18.0527L60.5681 0.0358499Z" fill="#E9661C"/>
</g>
</g>
</g>
<defs>
<clipPath id="clip0_189_2">
<rect width="377" height="805" fill="white" transform="translate(-50 -447)"/>
</clipPath>
<clipPath id="clip1_189_2">
<rect width="68.2266" height="24.2583" fill="white"/>
</clipPath>
</defs>
</svg>
